<svg version="1.1" xmlns="http://www.w3.org/2000/svg" xmlns:xlink="http://www.w3.org/1999/xlink" width="844" height="268"><defs/><g><g transform="translate(-230,-30) scale(1,1)"><path fill="none" stroke="#000000" d="M 240 128 L 1064 128 L 1064 288 L 240 288 L 240 128" stroke-miterlimit="10"/></g><g transform="translate(-230,-30) scale(1,1)"><path fill="#ffffff" stroke="none" d="M 240 128 L 240 150 L 507.4814453125 150 L 518.4814453125 139 L 518.4814453125 128 L 240 128"/></g><g transform="translate(-230,-30) scale(1,1)"><path fill="none" stroke="#000000" d="M 240 128 L 240 150 L 507.4814453125 150 L 518.4814453125 139 L 518.4814453125 128 L 240 128 L 240 128" stroke-miterlimit="10"/></g><g transform="translate(-230,-30) scale(1,1)"><g><path fill="none" stroke="none"/><text fill="#000000" stroke="none" font-family="Arial" font-size="13px" font-style="normal" font-weight="normal" text-decoration="none" x="310.97900390625" y="145.5">InGameState event management</text></g></g><g transform="translate(-230,-30) scale(1,1)"><g><path fill="none" stroke="none"/><text fill="#000000" stroke="none" font-family="Arial" font-size="13px" font-style="normal" font-weight="bold" text-decoration="none" x="245" y="145.5">interaction</text></g></g><g transform="translate(-230,-30) scale(1,1)"><rect fill="#C0C0C0" stroke="none" x="567" y="47" width="100.6435546875" height="39" opacity="0.2"/></g><g transform="translate(-230,-30) scale(1,1)"><rect fill="#ffffff" stroke="none" x="560" y="40" width="100.6435546875" height="39"/></g><g transform="translate(-230,-30) scale(1,1)"><path fill="none" stroke="#000000" d="M 560 40 L 660.6435546875 40 L 660.6435546875 79 L 560 79 L 560 40 Z Z" stroke-miterlimit="10"/></g><g transform="translate(-230,-30) scale(1,1)"><g><path fill="none" stroke="none"/><text fill="#000000" stroke="none" font-family="Arial" font-size="13px" font-style="normal" font-weight="bold" text-decoration="none" x="572.023193359375" y="59.5">InGameState</text></g></g><g transform="translate(-230,-30) scale(1,1)"><path fill="none" stroke="#000000" d="M 611.5 80 L 611.5 288" stroke-miterlimit="10" stroke-dasharray="3"/></g><g transform="translate(-230,-30) scale(1,1)"><path fill="#000000" stroke="none" d="M 472 99.5 C 472 95.6340064 475.1340064 92.5 479 92.5 C 482.8659936 92.5 486 95.6340064 486 99.5 C 486 103.3659936 482.8659936 106.5 479 106.5 C 475.1340064 106.5 472 103.3659936 472 99.5 Z"/></g><g transform="translate(-230,-30) scale(1,1)"><rect fill="#C0C0C0" stroke="none" x="695" y="47" width="175.78076171875" height="39" opacity="0.2"/></g><g transform="translate(-230,-30) scale(1,1)"><rect fill="#ffffff" stroke="none" x="688" y="40" width="175.78076171875" height="39"/></g><g transform="translate(-230,-30) scale(1,1)"><path fill="none" stroke="#000000" d="M 688 40 L 863.78076171875 40 L 863.78076171875 79 L 688 79 L 688 40 Z Z" stroke-miterlimit="10"/></g><g transform="translate(-230,-30) scale(1,1)"><g><path fill="none" stroke="none"/><text fill="#000000" stroke="none" font-family="Arial" font-size="13px" font-style="normal" font-weight="normal" text-decoration="none" x="724.944091796875" y="57.5">«not a real class»</text></g></g><g transform="translate(-230,-30) scale(1,1)"><g><path fill="none" stroke="none"/><text fill="#000000" stroke="none" font-family="Arial" font-size="13px" font-style="normal" font-weight="bold" text-decoration="none" x="702.549560546875" y="72.5">ObservableDataStructure</text></g></g><g transform="translate(-230,-30) scale(1,1)"><path fill="none" stroke="#000000" d="M 776.5 80 L 776.5 288" stroke-miterlimit="10" stroke-dasharray="3"/></g><g transform="translate(-230,-30) scale(1,1)"><rect fill="#C0C0C0" stroke="none" x="895" y="47" width="133.1435546875" height="39" opacity="0.2"/></g><g transform="translate(-230,-30) scale(1,1)"><path fill="none" stroke="#000000" d="M 893 45 L 1026.1435546875 45 L 1026.1435546875 84 L 893 84 L 893 45 Z Z" stroke-miterlimit="10"/></g><g transform="translate(-230,-30) scale(1,1)"><rect fill="#ffffff" stroke="none" x="888" y="40" width="133.1435546875" height="39"/></g><g transform="translate(-230,-30) scale(1,1)"><path fill="none" stroke="#000000" d="M 888 40 L 1021.1435546875 40 L 1021.1435546875 79 L 888 79 L 888 40 Z Z" stroke-miterlimit="10"/></g><g transform="translate(-230,-30) scale(1,1)"><g><path fill="none" stroke="none"/><text fill="#000000" stroke="none" font-family="Arial" font-size="13px" font-style="normal" font-weight="normal" text-decoration="none" x="903.62548828125" y="57.5">«not a real class»</text></g></g><g transform="translate(-230,-30) scale(1,1)"><g><path fill="none" stroke="none"/><text fill="#000000" stroke="none" font-family="Arial" font-size="13px" font-style="normal" font-weight="bold" text-decoration="none" x="901.819580078125" y="72.5">Javafx component</text></g></g><g transform="translate(-230,-30) scale(1,1)"><path fill="none" stroke="#000000" d="M 955.5 80 L 955.5 288" stroke-miterlimit="10" stroke-dasharray="3"/></g><g transform="translate(-230,-30) scale(1,1)"><path fill="none" stroke="#000000" d="M 486 100 L 604 100" stroke-miterlimit="10"/></g><g transform="translate(-230,-30) scale(1,1)"><path fill="#000000" stroke="none" d="M 593.8373251423759 104.20951775601598 L 604 100 L 593.8373251423758 95.79048224398402"/></g><g transform="translate(-230,-30) scale(1,1)"><path fill="none" stroke="#000000" d="M 593.8373251423759 104.20951775601598 L 604 100 L 593.8373251423758 95.79048224398402 L 593.8373251423759 104.20951775601598" stroke-miterlimit="10"/></g><g transform="translate(-230,-30) scale(1,1)"><g><path fill="none" stroke="none"/><text fill="#000000" stroke="none" font-family="Arial" font-size="13px" font-style="normal" font-weight="normal" text-decoration="none" x="519.588623046875" y="96.5">1 : event</text></g></g><g transform="translate(-230,-30) scale(1,1)"><rect fill="#ffffff" stroke="none" x="604" y="100" width="13" height="44"/></g><g transform="translate(-230,-30) scale(1,1)"><path fill="none" stroke="#000000" d="M 604 100 L 617 100 L 617 144 L 604 144 L 604 100 Z Z" stroke-miterlimit="10"/></g><g transform="translate(-230,-30) scale(1,1)"><path fill="none" stroke="#000000" d="M 611 144 L 641 144 L 641 164 L 617 164" stroke-miterlimit="10"/></g><g transform="translate(-230,-30) scale(1,1)"><path fill="#000000" stroke="none" d="M 627.1626748576241 159.790482243984 L 617 164 L 627.1626748576241 168.209517756016"/></g><g transform="translate(-230,-30) scale(1,1)"><path fill="none" stroke="#000000" d="M 627.1626748576241 159.790482243984 L 617 164 L 627.1626748576241 168.209517756016 L 627.1626748576241 159.790482243984" stroke-miterlimit="10"/></g><g transform="translate(-230,-30) scale(1,1)"><g><path fill="none" stroke="none"/><text fill="#000000" stroke="none" font-family="Arial" font-size="13px" font-style="normal" font-weight="normal" text-decoration="none" x="655.8505859375" y="159.5">2 : getDTO</text></g></g><g transform="translate(-230,-30) scale(1,1)"><rect fill="#ffffff" stroke="none" x="604" y="164" width="13" height="44"/></g><g transform="translate(-230,-30) scale(1,1)"><path fill="none" stroke="#000000" d="M 604 164 L 617 164 L 617 208 L 604 208 L 604 164 Z Z" stroke-miterlimit="10"/></g><g transform="translate(-230,-30) scale(1,1)"><path fill="none" stroke="#000000" d="M 611 208 L 769 208" stroke-miterlimit="10"/></g><g transform="translate(-230,-30) scale(1,1)"><path fill="#000000" stroke="none" d="M 758.8373251423759 212.209517756016 L 769 208 L 758.8373251423758 203.790482243984"/></g><g transform="translate(-230,-30) scale(1,1)"><path fill="none" stroke="#000000" d="M 758.8373251423759 212.209517756016 L 769 208 L 758.8373251423758 203.790482243984 L 758.8373251423759 212.209517756016" stroke-miterlimit="10"/></g><g transform="translate(-230,-30) scale(1,1)"><g><path fill="none" stroke="none"/><text fill="#000000" stroke="none" font-family="Arial" font-size="13px" font-style="normal" font-weight="normal" text-decoration="none" x="669.64453125" y="204.5">3 : add</text></g></g><g transform="translate(-230,-30) scale(1,1)"><rect fill="#ffffff" stroke="none" x="769" y="208" width="13" height="28"/></g><g transform="translate(-230,-30) scale(1,1)"><path fill="none" stroke="#000000" d="M 769 208 L 782 208 L 782 236 L 769 236 L 769 208 Z Z" stroke-miterlimit="10"/></g><g transform="translate(-230,-30) scale(1,1)"><path fill="none" stroke="#000000" d="M 782 232 L 948 232" stroke-miterlimit="10"/></g><g transform="translate(-230,-30) scale(1,1)"><path fill="#000000" stroke="none" d="M 937.8373251423759 236.209517756016 L 948 232 L 937.8373251423758 227.790482243984"/></g><g transform="translate(-230,-30) scale(1,1)"><path fill="none" stroke="#000000" d="M 937.8373251423759 236.209517756016 L 948 232 L 937.8373251423758 227.790482243984 L 937.8373251423759 236.209517756016" stroke-miterlimit="10"/></g><g transform="translate(-230,-30) scale(1,1)"><g><path fill="none" stroke="none"/><text fill="#000000" stroke="none" font-family="Arial" font-size="13px" font-style="normal" font-weight="normal" text-decoration="none" x="822.5" y="228.5">4 : onChanged</text></g></g><g transform="translate(-230,-30) scale(1,1)"><rect fill="#ffffff" stroke="none" x="948" y="232" width="13" height="28"/></g><g transform="translate(-230,-30) scale(1,1)"><path fill="none" stroke="#000000" d="M 948 232 L 961 232 L 961 260 L 948 260 L 948 232 Z Z" stroke-miterlimit="10"/></g></g></svg>
