<svg version="1.1" xmlns="http://www.w3.org/2000/svg" xmlns:xlink="http://www.w3.org/1999/xlink" width="484" height="300"><defs/><g><g transform="translate(-70,-30) scale(1,1)"><path fill="none" stroke="#000000" d="M 80 136 L 544 136 L 544 320 L 80 320 L 80 136" stroke-miterlimit="10"/></g><g transform="translate(-70,-30) scale(1,1)"><path fill="#ffffff" stroke="none" d="M 80 136 L 80 158 L 266.5234375 158 L 277.5234375 147 L 277.5234375 136 L 80 136"/></g><g transform="translate(-70,-30) scale(1,1)"><path fill="none" stroke="#000000" d="M 80 136 L 80 158 L 266.5234375 158 L 277.5234375 147 L 277.5234375 136 L 80 136 L 80 136" stroke-miterlimit="10"/></g><g transform="translate(-70,-30) scale(1,1)"><g><path fill="none" stroke="none"/><text fill="#000000" stroke="none" font-family="Arial" font-size="13px" font-style="normal" font-weight="normal" text-decoration="none" x="150.97900390625" y="153.5">Server to viewstate</text></g></g><g transform="translate(-70,-30) scale(1,1)"><g><path fill="none" stroke="none"/><text fill="#000000" stroke="none" font-family="Arial" font-size="13px" font-style="normal" font-weight="bold" text-decoration="none" x="85" y="153.5">interaction</text></g></g><g transform="translate(-70,-30) scale(1,1)"><rect fill="#C0C0C0" stroke="none" x="287" y="47" width="71.736328125" height="39" opacity="0.2"/></g><g transform="translate(-70,-30) scale(1,1)"><rect fill="#ffffff" stroke="none" x="280" y="40" width="71.736328125" height="39"/></g><g transform="translate(-70,-30) scale(1,1)"><path fill="none" stroke="#000000" d="M 280 40 L 351.736328125 40 L 351.736328125 79 L 280 79 L 280 40 Z Z" stroke-miterlimit="10"/></g><g transform="translate(-70,-30) scale(1,1)"><g><path fill="none" stroke="none"/><text fill="#000000" stroke="none" font-family="Arial" font-size="13px" font-style="normal" font-weight="bold" text-decoration="none" x="301.89697265625" y="59.5">View</text></g></g><g transform="translate(-70,-30) scale(1,1)"><path fill="none" stroke="#000000" d="M 316.5 80 L 316.5 280" stroke-miterlimit="10" stroke-dasharray="3"/></g><g transform="translate(-70,-30) scale(1,1)"><path fill="#000000" stroke="none" d="M 152 99.5 C 152 95.6340064 155.1340064 92.5 159 92.5 C 162.8659936 92.5 166 95.6340064 166 99.5 C 166 103.3659936 162.8659936 106.5 159 106.5 C 155.1340064 106.5 152 103.3659936 152 99.5 Z"/></g><g transform="translate(-70,-30) scale(1,1)"><rect fill="#C0C0C0" stroke="none" x="378.736328125" y="47" width="117.99169921875" height="39" opacity="0.2"/></g><g transform="translate(-70,-30) scale(1,1)"><rect fill="#ffffff" stroke="none" x="371.736328125" y="40" width="117.99169921875" height="39"/></g><g transform="translate(-70,-30) scale(1,1)"><path fill="none" stroke="#000000" d="M 371.736328125 40 L 489.72802734375 40 L 489.72802734375 79 L 371.736328125 79 L 371.736328125 40 Z Z" stroke-miterlimit="10"/></g><g transform="translate(-70,-30) scale(1,1)"><g><path fill="none" stroke="none"/><text fill="#000000" stroke="none" font-family="Arial" font-size="13px" font-style="normal" font-weight="bold" text-decoration="none" x="401.583740234375" y="59.5">ViewState</text></g></g><g transform="translate(-70,-30) scale(1,1)"><path fill="none" stroke="#000000" d="M 431.5 80 L 431.5 274" stroke-miterlimit="10" stroke-dasharray="3"/></g><g transform="translate(-70,-30) scale(1,1)"><path fill="none" stroke="#000000" d="M 166 100 L 309 100" stroke-miterlimit="10"/></g><g transform="translate(-70,-30) scale(1,1)"><path fill="#000000" stroke="none" d="M 298.83732514237585 104.20951775601598 L 309 100 L 298.83732514237585 95.79048224398402"/></g><g transform="translate(-70,-30) scale(1,1)"><path fill="none" stroke="#000000" d="M 298.83732514237585 104.20951775601598 L 309 100 L 298.83732514237585 95.79048224398402 L 298.83732514237585 104.20951775601598" stroke-miterlimit="10"/></g><g transform="translate(-70,-30) scale(1,1)"><g><path fill="none" stroke="none"/><text fill="#000000" stroke="none" font-family="Arial" font-size="13px" font-style="normal" font-weight="normal" text-decoration="none" x="211.588623046875" y="96.5">1 : event</text></g></g><g transform="translate(-70,-30) scale(1,1)"><rect fill="#ffffff" stroke="none" x="309" y="100" width="13" height="68"/></g><g transform="translate(-70,-30) scale(1,1)"><path fill="none" stroke="#000000" d="M 309 100 L 322 100 L 322 168 L 309 168 L 309 100 Z Z" stroke-miterlimit="10"/></g><g transform="translate(-70,-30) scale(1,1)"><path fill="none" stroke="#000000" d="M 316 168 L 424 168" stroke-miterlimit="10"/></g><g transform="translate(-70,-30) scale(1,1)"><path fill="#000000" stroke="none" d="M 413.83732514237585 172.209517756016 L 424 168 L 413.83732514237585 163.790482243984"/></g><g transform="translate(-70,-30) scale(1,1)"><path fill="none" stroke="#000000" d="M 413.83732514237585 172.209517756016 L 424 168 L 413.83732514237585 163.790482243984 L 413.83732514237585 172.209517756016" stroke-miterlimit="10"/></g><g transform="translate(-70,-30) scale(1,1)"><g><path fill="none" stroke="none"/><text fill="#000000" stroke="none" font-family="Arial" font-size="13px" font-style="normal" font-weight="normal" text-decoration="none" x="344.588623046875" y="164.5">2 : event</text></g></g><g transform="translate(-70,-30) scale(1,1)"><rect fill="#ffffff" stroke="none" x="424" y="168" width="13" height="28"/></g><g transform="translate(-70,-30) scale(1,1)"><path fill="none" stroke="#000000" d="M 424 168 L 437 168 L 437 196 L 424 196 L 424 168 Z Z" stroke-miterlimit="10"/></g></g></svg>
